<?xml version="1.0" encoding="utf-8"?>
<!-- Generator: Adobe Illustrator 25.2.1, SVG Export Plug-In . SVG Version: 6.00 Build 0)  -->
<svg version="1.1" id="Capa_1" xmlns="http://www.w3.org/2000/svg" xmlns:xlink="http://www.w3.org/1999/xlink" x="0px" y="0px"
	 viewBox="0 0 1000 1000" style="enable-background:new 0 0 1000 1000;" xml:space="preserve">
<style type="text/css">
	.st0{fill:none;stroke:#FFFFFF;stroke-width:10;stroke-miterlimit:10;}
	.st1{fill:#FFFFFF;}
	.st2{fill:none;stroke:#000000;stroke-width:18;stroke-miterlimit:10;}
	.st3{fill:#E02229;}
	.st4{fill-rule:evenodd;clip-rule:evenodd;fill:#FFFFFF;}
	.st5{fill:#EC1C24;}
</style>
<g>
	<path class="st0" d="M373.1,617.15l-18.56,28.87c-1.78,2.77-2.73,6-2.73,9.3v13.94c0,2.67-0.62,5.3-1.82,7.69l-17.22,34.43
		c-3.9,7.81-1.31,17.28,5.98,22.08c1.35,0.89,2.48,1.73,3.18,2.42c2.36,2.36,1.34,19.87,0.57,29.65c-0.34,4.28,0.93,8.51,3.57,11.9
		l12.28,15.79c4.05,5.21,10.73,7.64,17.18,6.26l14.75-3.16c10.71-2.29,20.8,5.87,20.8,16.82v2.78c0,14.87,17.6,22.73,28.68,12.8
		l60.29-54.06c4.1-3.68,6.19-9.1,5.63-14.57l-7.38-71.35c-0.91-8.77-8.29-15.43-17.11-15.43h-43.03c-9.5,0-17.2-7.7-17.2-17.2
		v-21.57c0-6.51-3.68-12.47-9.51-15.38l-16.2-8.1C387.4,607.14,377.85,609.76,373.1,617.15z"/>
	<path class="st0" d="M498.3,688.75c-0.91-8.77-8.29-15.43-17.11-15.43h-33.95c-22.99,3.29-26.28-11.77-26.28-26.28v-6.88
		c0-9.95-5.62-19.05-14.53-23.5l-11.18-5.59c-0.03-0.02-0.07-0.03-0.1-0.05c-4.8-2.36-6.88-8.04-4.23-12.68l10.96-19.23
		c1.62-2.83,4.63-4.58,7.89-4.58h40.88c2.1,0,4.13,0.73,5.75,2.05l25.95,21.23c4.16,3.4,4.47,9.65,0.67,13.45l-3.75,3.75
		c-5.72,5.72-1.67,15.5,6.42,15.5h62.85c5.61,0,9.88,5.04,8.96,10.57l-13.44,80.63c-0.73,4.38-4.52,7.59-8.96,7.59h-24.31
		c-4.64,0-8.54-3.5-9.03-8.11L498.3,688.75z"/>
	<path class="st0" d="M599.02,551.24l16.96-16.96c0.95-0.95,0.28-2.57-1.06-2.57h-18.79c-0.4,0-0.78,0.16-1.06,0.44l-15.58,15.58
		c-0.28,0.28-0.67,0.44-1.06,0.44h-117.3c-0.4,0-0.78-0.16-1.06-0.44l-17.23-17.23c-0.28-0.28-0.67-0.44-1.06-0.44h-49.8
		c-0.4,0-0.78-0.16-1.06-0.44l-19.08-19.08c-0.59-0.59-1.54-0.59-2.13,0l-9.2,9.2c-0.28,0.28-0.44,0.67-0.44,1.06v27.37v22.35
		c0,0.44,0.2,0.87,0.54,1.15l29.46,24.81c0.68,0.57,1.7,0.45,2.2-0.29c3.34-4.96,8.96-21.68,17.54-21.68h40.34
		c2.44,0,4.81,0.85,6.7,2.39l24.24,19.84c4.85,3.97,5.21,11.25,0.78,15.68h0c-6.67,6.67-8.19,18.07,7.49,18.07h59.22h3.51
		c0.4,0,0.78-0.16,1.06-0.44L564,619.2c0.94-0.94,1.72-2.03,2.31-3.22l31.15-62.57C597.86,552.61,598.39,551.88,599.02,551.24z"/>
	<polyline class="st0" points="440.73,530.07 440.73,485.61 450.6,479.03 506.59,479.03 516.47,495.49 542.81,495.49 560.92,513.6 
		560.92,538.3 588.91,538.3 	"/>
	<path class="st0" d="M505.74,475.23l-5.67-25.51c-0.05-0.22-0.07-0.45-0.07-0.68v-51.05c0-0.83-0.33-1.62-0.91-2.21l-19.93-19.93
		c-1.22-1.22-3.19-1.22-4.41,0l-21.93,21.93c-1.22,1.22-1.22,3.19,0,4.41l6.76,6.76c0.58,0.58,0.91,1.38,0.91,2.21v34.47
		c0,0.3-0.04,0.61-0.13,0.9l-8.54,28.48c-0.6,2,0.9,4.02,2.99,4.02h47.9C504.69,479.03,506.18,477.18,505.74,475.23z"/>
	<path class="st0" d="M453.9,396.7l-32.18-32.18c-2.23-2.23-2.23-5.86,0-8.09l11.67-11.67c2.23-2.23,5.86-2.23,8.09,0l28.13,28.13
		c2.23,2.23,2.23,5.86,0,8.09L453.9,396.7"/>
	<path class="st0" d="M428.16,339.03l-11.8-9.83c-1.28-1.06-2.89-1.65-4.55-1.65h-61.99c-1.89,0-3.69,0.75-5.03,2.08l-7.84,7.84
		c-3.3,3.3-2.58,8.84,1.47,11.18l2.91,1.68c2.79,1.61,6.31,1.15,8.59-1.13l3.11-3.11c1.33-1.33,3.14-2.08,5.03-2.08h42.49
		c1.5,0,2.97,0.48,4.18,1.36l11.33,8.24c2.83,2.06,6.74,1.75,9.21-0.72l3.37-3.37C431.59,346.56,431.37,341.71,428.16,339.03z"/>
	<path class="st0" d="M637.06,796.81c1.85,0,3.63-0.74,4.94-2.05l5.7-5.7c0.33-0.33,0.62-0.68,0.87-1.06l11.95-17.93
		c0.45-0.68,0.81-1.42,1.01-2.21c1.89-7.39,18.33-48.59,19.51-51.56c0.05-0.13,0.09-0.23,0.13-0.36l9.46-28.37
		c0.24-0.71,0.36-1.46,0.36-2.21v-12.04l-1.65-55.98V612c0-1.85-0.74-3.63-2.05-4.94l-21.01-21.01c-2.73-2.73-2.73-7.15,0-9.88
		l6.19-6.19c1.31-1.31,2.05-3.09,2.05-4.94l0,0c0-3.86-3.13-6.99-6.99-6.99h-67.73c-2.65,0-5.06,1.49-6.25,3.86l-24.26,48.52
		c-1.85,3.69-0.1,8.17,3.75,9.65l22.74,8.7c2.7,1.03,4.49,3.63,4.49,6.52v23.43c0,1.85-0.74,3.63-2.05,4.94l-17.47,17.47
		c-1.31,1.31-2.05,3.09-2.05,4.94v43.3c0,1.85-0.74,3.63-2.05,4.94L564,747.01c-1.31,1.31-2.05,3.09-2.05,4.94v24.47
		c0,1.85,0.74,3.63,2.05,4.94l10.18,10.18c1.81,1.81,4.23,2.87,6.79,2.97L637.06,796.81z"/>
</g>
<path class="st1" d="M420.81,439.04c3.55,5.08,4.76,10.75,3.5,16.87c-0.93,4.5-3.2,8.28-6.63,11.35c-6.65,5.95-17.66,7.92-27.32,0.9
	l-3.03-2.82c-1.02-1.73-2.23-3.09-3.99-4.11c-12.03-6.99-24.01-14.07-36-21.13c-0.38-0.22-0.77-0.43-1.12-0.7
	c-0.85-0.66-1.07-1.74-0.57-2.65c0.47-0.86,1.56-1.19,2.59-0.74c0.45,0.2,0.86,0.48,1.29,0.73c10.53,6.19,21.05,12.37,31.58,18.56
	c0.46,0.27,0.92,0.52,1.57,0.88c-0.16-1.52-0.23-2.82-0.46-4.1c-0.08-0.42-0.52-0.81-0.86-1.15c-4.99-4.9-9.98-9.79-14.97-14.68
	c-0.43-0.42-0.89-0.83-1.26-1.3c-0.57-0.74-0.48-1.94,0.13-2.59c0.65-0.69,1.72-0.8,2.56-0.21c0.36,0.25,0.66,0.58,0.98,0.88
	c4.21,4.12,8.42,8.24,12.63,12.35c0.39,0.38,0.79,0.73,1.33,1.22c1.07-3.91,2.86-7.27,5.67-10.13c-1.77-2.22-3.48-4.37-5.19-6.52
	c-2.92-3.66-5.83-7.32-8.75-10.98c-0.21-0.26-0.44-0.5-0.6-0.78c-0.53-0.92-0.37-1.87,0.4-2.53c0.79-0.68,1.89-0.66,2.69,0.1
	c0.36,0.34,0.64,0.75,0.95,1.14c4.37,5.46,8.73,10.92,13.1,16.38c0.13,0.17,0.29,0.32,0.54,0.59c3.35-2.25,7.08-3.41,11.27-3.7
	c-0.33-0.57-0.54-1-0.79-1.4c-3.2-4.95-6.4-9.89-9.6-14.83c-0.3-0.46-0.62-0.92-0.83-1.42c-0.37-0.87-0.06-1.82,0.68-2.34
	c0.76-0.54,1.89-0.46,2.57,0.23c0.3,0.31,0.53,0.7,0.77,1.07c3.8,5.87,7.64,11.71,11.37,17.62c0.74,1.17,1.61,1.86,2.92,2.11
	c0.42,0.08,0.83,0.24,1.48,0.44c-0.17-0.64-0.26-1.14-0.43-1.62c-3.91-11.33-7.82-22.67-11.74-34c-0.16-0.47-0.37-0.93-0.45-1.41
	c-0.19-1.1,0.38-2,1.39-2.31c0.95-0.29,1.83,0.09,2.33,1.06c0.22,0.44,0.36,0.92,0.52,1.39c4.45,12.89,8.9,25.78,13.36,38.68
	c0.32,0.93,0.56,1.91,1.72,2.37 M401.82,468.01c8.19,1.08,17.27-4.83,18.38-14.79c1.03-9.15-5.8-17.51-14.96-18.45
	c-9.18-0.94-17.6,5.84-18.42,15C385.91,460.18,393.98,467.44,401.82,468.01z"/>
<g>
	<path class="st1" d="M358.95,913.57h-15.31v-9.18h40.59v9.18h-15.31v44.49h-9.98V913.57z"/>
	<path class="st1" d="M403.17,904.38h12.25l15.5,53.67h-10.77l-2.65-10.17h-16.4l-2.65,10.17h-10.77L403.17,904.38z M415.12,938.66
		l-5.48-21.17h-0.68l-5.48,21.17H415.12z"/>
	<path class="st1" d="M437.38,904.38h16.59c11.3,0,17.73,4.8,17.73,13.3c0,6.95-4.54,11.04-12.55,11.38v1.25h1.74
		c9.3,0,14.59,4.72,14.59,13c0,9.37-6.12,14.74-16.9,14.74h-21.2V904.38z M454.12,925.1c4.69,0,7.11-2.04,7.11-6.05
		c0-3.63-2.57-5.48-7.63-5.48h-6.24v11.53H454.12z M456.39,948.87c5.44,0,8.62-2.68,8.62-7.33c0-4.57-3.33-7.22-9.15-7.22h-8.5
		v14.55H456.39z"/>
	<path class="st1" d="M493.88,904.38h12.25l15.5,53.67h-10.77l-2.65-10.17h-16.4l-2.65,10.17h-10.77L493.88,904.38z M505.82,938.66
		l-5.48-21.17h-0.68l-5.48,21.17H505.82z"/>
	<path class="st1" d="M526.91,955.86l1.36-10.21c5.52,2.34,11.19,3.63,15.84,3.63c5.37,0,8.35-1.97,8.35-5.56
		c0-2.23-1.62-4.27-4.42-5.59l-7.71-3.74c-7.6-3.7-11.98-9.37-11.98-16.03c0-9.37,6.46-14.74,17.8-14.74
		c6.58,0,12.66,2.38,17.27,6.77l-6.88,7.9c-3.48-3.33-7.11-5.18-10.36-5.18c-4.46,0-7.03,1.97-7.03,5.52c0,2.38,1.81,4.54,5.03,6.24
		l7.26,3.74c7.56,3.93,11.83,9.3,11.83,15.31c0,9.52-7.11,14.89-19.77,14.89C537.42,958.81,531.45,957.75,526.91,955.86z"/>
	<path class="st1" d="M570.64,931.14c0-17.46,9-27.52,24.76-27.52c7.11,0,12.85,2.38,15.69,6.62l-5.59,7.29
		c-2.27-2.8-5.93-4.42-10.02-4.42c-8.69,0-14.32,6.39-14.32,17.65c0,12.36,5.52,18.52,16.44,18.52c3.7,0,7.26-0.76,10.81-2.27
		l1.74,9.22c-4.46,1.74-9.07,2.57-13.83,2.57C579.26,958.81,570.64,949.59,570.64,931.14z"/>
	<path class="st1" d="M615.61,931.6c0-18.67,6.88-27.97,20.45-27.97c13.57,0,20.45,9.3,20.45,27.97c0,18.22-6.88,27.21-20.45,27.21
		C622.49,958.81,615.61,949.81,615.61,931.6z M646.04,931.6c0-12.36-3.33-18.48-9.98-18.48s-9.98,6.12-9.98,18.48
		c0,11.83,3.33,17.69,9.98,17.69S646.04,943.43,646.04,931.6z"/>
</g>
<g>
	<path class="st4" d="M299.52,186.9v-4.46c-0.05-1.07-0.25-2.13-0.59-3.14c-0.27-0.86-0.66-1.68-1.16-2.42
		c-0.54-0.82-1.13-1.61-1.76-2.37c-1.46-1.76-2.93-3.42-4.39-4.9c-1.46-1.48-3-3.04-4.54-4.54s-3.11-3.11-4.72-4.83
		c-1.61-1.72-3.29-3.66-5.05-5.74c-1.81-1.92-3-4.34-3.42-6.95c-0.38-2.87-0.55-5.77-0.5-8.67v-18.14
		c0-13.25,6.23-19.87,18.69-19.86c6.73,0,11.45,1.64,14.19,4.89c3.07,4.36,4.52,9.65,4.1,14.97v21.94h-10.37V122.2
		c0.11-2.53-0.42-5.04-1.53-7.31c-1.33-2.01-3.69-3.09-6.08-2.78c-5.13,0-7.7,2.88-7.7,8.63v17.81c-0.08,1.85,0.09,3.71,0.51,5.52
		c0.46,1.35,1.18,2.59,2.12,3.66c2.67,3.51,5.6,6.83,8.76,9.91c3.3,3.05,6.41,6.31,9.29,9.76c2,2.26,3.45,4.95,4.24,7.86
		c0.79,3.7,1.13,7.49,1.03,11.27v17.23c0.34,5.23-1.17,10.41-4.28,14.63c-3.81,3.75-9.09,5.62-14.41,5.08
		c-5.27,0.49-10.49-1.37-14.27-5.08c-3.22-4.17-4.8-9.38-4.46-14.63v-25.6h10.68v23.96c-0.11,2.63,0.48,5.24,1.71,7.56
		c0.63,1,1.52,1.8,2.57,2.33c1.06,0.51,2.25,0.72,3.42,0.6c1.12,0.12,2.25-0.02,3.3-0.42c1.05-0.39,2-1.03,2.77-1.85
		c1.36-1.92,2.01-4.26,1.83-6.62L299.52,186.9z M352.04,124.14c0.25-2.84-0.53-5.66-2.19-7.98c-1.96-1.86-4.62-2.79-7.32-2.57h-7.61
		v40.84h7.7c2.68,0.26,5.35-0.65,7.32-2.48c1.77-2.29,2.61-5.17,2.34-8.05v-19.94L352.04,124.14z M323.66,222.31V102.23h18.83
		c5.71-0.47,11.36,1.43,15.62,5.26c3.75,4.64,5.56,10.55,5.05,16.5v19.68c0,7.61-1.65,13.09-4.98,16.5
		c-4.28,3.75-9.91,5.61-15.58,5.13h-7.79v57.06L323.66,222.31z M395.75,191.95c-1.29-10.31-2.51-20.56-3.65-30.72
		c-1.15-10.17-2.37-20.46-3.66-30.87c-1.27,10.41-2.56,20.7-3.88,30.87c-1.32,10.17-2.66,20.41-4.02,30.72L395.75,191.95z
		 M399.7,222.31l-2.64-20.12h-17.97l-2.64,20.12h-11L382,102.23h13.09l15.62,120.12L399.7,222.31z M446.3,178.24h10.1v24.82
		c0.43,5.51-1.04,11-4.17,15.56c-3.52,3.6-8.5,5.39-13.5,4.87c-12.77,0-19.16-6.77-19.16-20.3v-81.57
		c0-13.83,6.39-20.74,19.16-20.74c11.71,0,17.56,6.81,17.56,20.44v21.29h-9.99v-21.15c0.18-2.48-0.39-4.95-1.64-7.09
		c-1.47-1.68-3.68-2.53-5.9-2.27c-5.3,0-7.97,3.14-7.97,9.36v81.74c0,6.32,2.67,9.47,7.97,9.47c2.22,0.23,4.41-0.65,5.85-2.34
		c1.28-2.15,1.87-4.63,1.71-7.13L446.3,178.24z M469.4,222.31V102.23h31.78v11.23h-20.78v42.06h14.63v11.23h-14.63v44.66h21.51
		v10.97h-32.63L469.4,222.31z M564.03,191.95c-1.29-10.31-2.51-20.56-3.65-30.72c-1.15-10.17-2.36-20.46-3.65-30.87
		c-1.29,10.41-2.58,20.7-3.88,30.87c-1.3,10.17-2.64,20.41-4.03,30.72L564.03,191.95z M567.98,222.31l-2.64-20.12h-17.97
		l-2.63,20.12h-11.03l16.53-120.08h13.09L579,222.35L567.98,222.31z M618.56,123.96c0.23-2.83-0.55-5.66-2.19-7.98
		c-0.98-0.92-2.15-1.63-3.42-2.06c-1.26-0.45-2.6-0.62-3.93-0.5h-7.61v41.08h7.75c1.32,0.12,2.66-0.03,3.92-0.46
		c1.27-0.42,2.44-1.11,3.42-2.02c1.76-2.3,2.6-5.17,2.34-8.05v-20.01H618.56z M590.05,222.31V102.23h18.83
		c5.71-0.48,11.36,1.42,15.62,5.26c3.76,4.64,5.58,10.55,5.08,16.5v19.68c0,7.61-1.71,13.09-5.01,16.5
		c-4.28,3.75-9.91,5.61-15.58,5.13h-7.79v57.06L590.05,222.31z M669.17,123.96c0.23-2.83-0.55-5.66-2.2-7.98
		c-0.97-0.92-2.12-1.62-3.38-2.06c-1.26-0.45-2.6-0.62-3.94-0.5h-7.61v41.08h7.76c1.32,0.12,2.66-0.03,3.92-0.46
		c1.27-0.43,2.44-1.11,3.42-2.02c1.76-2.29,2.6-5.17,2.34-8.05v-20.01H669.17z M640.78,222.31V102.23h18.83
		c5.71-0.47,11.36,1.43,15.62,5.26c3.8,4.62,5.66,10.53,5.19,16.5v19.68c0,7.61-1.71,13.09-5.01,16.5
		c-4.28,3.75-9.9,5.61-15.58,5.13h-7.8v57.06L640.78,222.31z M716.39,186.9v-4.46c-0.07-1.07-0.27-2.12-0.59-3.14
		c-0.28-0.85-0.67-1.67-1.16-2.42c-0.54-0.82-1.13-1.61-1.75-2.37c-1.47-1.76-2.93-3.42-4.39-4.9c-1.46-1.48-3-3.04-4.54-4.54
		s-3.18-3.18-4.76-4.83c-1.57-1.64-3.29-3.66-5.05-5.74c-1.79-1.93-2.98-4.35-3.42-6.95c-0.38-2.87-0.55-5.77-0.5-8.67v-18.14
		c0-13.25,6.23-19.87,18.69-19.86c6.73,0,11.45,1.64,14.19,4.89c3.07,4.36,4.52,9.65,4.1,14.97v21.94h-10.37V122.2
		c0.11-2.53-0.42-5.04-1.54-7.31c-1.33-2.01-3.68-3.09-6.07-2.78c-5.13,0-7.72,2.88-7.75,8.63v17.81c-0.07,1.85,0.1,3.71,0.51,5.52
		c0.49,1.34,1.21,2.58,2.12,3.66c2.69,3.53,5.65,6.84,8.85,9.91c3.3,3.05,6.41,6.31,9.29,9.76c2,2.26,3.45,4.95,4.24,7.86
		c0.79,3.7,1.13,7.49,1.03,11.27v17.23c0.34,5.23-1.17,10.41-4.28,14.63c-8.34,6.78-20.3,6.78-28.64,0
		c-3.22-4.17-4.8-9.38-4.46-14.63v-25.6h10.64v23.96c-0.09,2.63,0.5,5.23,1.71,7.56c0.64,1,1.55,1.81,2.62,2.33
		c1.06,0.51,2.25,0.72,3.42,0.6c1.12,0.12,2.24-0.03,3.29-0.42c1.05-0.39,2-1.03,2.77-1.85c1.34-1.93,1.99-4.27,1.83-6.62
		L716.39,186.9z"/>
	<path class="st1" d="M289.14,240.01c2.08-0.03,4.14,0.31,6.09,1.01c1.86,0.7,3.58,1.73,5.08,3.02l-4.13,4.93
		c-0.97-0.78-2.04-1.43-3.19-1.91c-1.09-0.44-2.25-0.65-3.42-0.64c-2.37-0.05-4.6,1.14-5.89,3.13c-1.41,2.08-2.11,5.29-2.11,9.64
		c0,4.35,0.7,7.53,2.11,9.54c1.34,1.99,3.6,3.15,5.99,3.07c1.26,0.02,2.5-0.24,3.65-0.74c1.25-0.63,2.44-1.37,3.55-2.23l3.87,4.98
		c-1.45,1.44-3.16,2.6-5.03,3.42c-2.04,0.89-4.25,1.33-6.47,1.28c-3.09,0.07-6.15-0.7-8.84-2.23c-2.57-1.56-4.62-3.85-5.89-6.57
		c-1.45-3.32-2.16-6.91-2.06-10.53c-0.09-3.56,0.64-7.09,2.12-10.33c1.29-2.72,3.35-5.01,5.93-6.56
		C283.12,240.75,286.11,239.96,289.14,240.01z"/>
	<path class="st1" d="M346.95,277.66v-15.77h-11.02v15.77h-8.7v-36.71h8.7v14.2h11.02v-14.23h8.69v36.75H346.95z"/>
	<path class="st1" d="M404.49,277.66l-1.91-7.9h-10.7l-1.86,7.9h-9l11.07-36.71h10.54l11.07,36.71H404.49z M393.36,263.47h7.7
		l-3.87-16.22L393.36,263.47z"/>
	<path class="st1" d="M447.71,240.92v29.82h14.3l-0.9,6.85h-22.1v-36.71L447.71,240.92z"/>
	<path class="st1" d="M497.52,240.92v29.82h14.3l-0.9,6.85H488.8v-36.71L497.52,240.92z"/>
	<path class="st1" d="M561.1,240.92l-0.91,6.2h-12.92v8.79h11.29v6.09h-11.29v9.41h13.83v6.26h-22.5v-36.71L561.1,240.92z"/>
	<path class="st1" d="M617.38,277.66H606.3l-10.59-28.45c0.36,2.79,0.62,5.26,0.8,7.42c0.17,2.16,0.28,4.68,0.32,7.57v13.46h-7.7
		v-36.71h10.8l10.86,28.5c-0.75-4.53-1.14-9.1-1.16-13.69v-14.84h7.79L617.38,277.66z"/>
	<path class="st1" d="M662.73,240.01c4.5-0.08,8.87,1.53,12.24,4.51l-4.4,4.6c-1.11-0.87-2.34-1.59-3.65-2.12
		c-1.21-0.48-2.51-0.71-3.82-0.68c-2.58-0.08-5.02,1.14-6.51,3.23c-1.64,2.12-2.46,5.35-2.46,9.69c0,4.7,0.62,8.03,1.86,10.01
		c1.25,1.95,3.46,3.07,5.77,2.92c1.74,0.03,3.45-0.39,4.98-1.22v-8.32h-4.77l-0.86-6.14h14.07v18.17c-1.95,1.25-4.08,2.22-6.31,2.86
		c-2.24,0.67-4.56,1.01-6.89,1.01c-5.58,0-9.78-1.63-12.61-4.88c-2.82-3.25-4.24-8.06-4.24-14.41c-0.1-3.59,0.68-7.16,2.28-10.38
		c1.42-2.75,3.61-5.03,6.3-6.56C656.47,240.76,659.58,239.97,662.73,240.01z"/>
	<path class="st1" d="M726.12,240.92l-0.86,6.2h-12.94v8.79h11.29v6.09h-11.29v9.41h13.83v6.26H703.6v-36.71L726.12,240.92z"/>
	<path class="st5" d="M458.31,83.01h-11.44L435.91,53.6c0.36,2.88,0.64,5.43,0.86,7.63s0.31,4.83,0.3,7.86v13.91h-8V45.05h11.17
		l11.23,29.47c-0.77-4.67-1.17-9.4-1.2-14.14V45.05h8.04L458.31,83.01z"/>
	<path class="st5" d="M490.85,83.01l-1.97-8.16h-11.04l-1.92,8.16h-9.34l11.44-37.96h10.94l11.44,37.96H490.85z M479.35,68.33h7.99
		l-4-16.76L479.35,68.33z"/>
	<path class="st5" d="M528.28,45.32c2.14,0.83,4.08,2.08,5.73,3.67l-4.16,4.88c-2.32-2.02-5.28-3.15-8.36-3.17
		c-1.31-0.07-2.61,0.26-3.72,0.96c-0.91,0.62-1.43,1.67-1.37,2.76c-0.03,0.73,0.18,1.45,0.6,2.05c0.59,0.66,1.32,1.18,2.14,1.51
		c1.5,0.66,3.03,1.23,4.6,1.71c3.87,1.24,6.72,2.76,8.56,4.58c1.84,1.81,2.75,4.38,2.74,7.7c0.04,2.22-0.59,4.41-1.81,6.27
		c-1.29,1.88-3.1,3.34-5.2,4.21c-2.55,1.06-5.29,1.57-8.05,1.51c-2.82,0.05-5.62-0.45-8.24-1.47c-2.28-0.92-4.37-2.26-6.16-3.95
		l4.54-4.99c1.35,1.17,2.88,2.1,4.54,2.77c1.61,0.63,3.33,0.95,5.07,0.93c1.56,0.09,3.11-0.35,4.41-1.23
		c1.07-0.8,1.67-2.09,1.62-3.42c0.03-0.84-0.18-1.67-0.61-2.39c-0.53-0.75-1.25-1.34-2.08-1.71c-1.38-0.67-2.81-1.22-4.28-1.64
		c-4.2-1.28-7.19-2.86-8.96-4.72c-1.79-1.91-2.74-4.45-2.65-7.06c-0.04-2.07,0.57-4.09,1.75-5.78c1.23-1.71,2.92-3.05,4.88-3.84
		c2.24-0.92,4.65-1.38,7.07-1.34C523.38,44.06,525.9,44.47,528.28,45.32z"/>
	<path class="st5" d="M565.17,83.01l-1.98-8.16h-11.06l-1.92,8.16h-9.31l11.44-37.96h10.9l11.44,37.96H565.17z M553.67,68.33h8.04
		l-4.04-16.76L553.67,68.33z"/>
</g>
</svg>
