<?xml version="1.0" encoding="utf-8"?>
<!-- Generator: Adobe Illustrator 25.2.1, SVG Export Plug-In . SVG Version: 6.00 Build 0)  -->
<svg version="1.1" id="Capa_1" xmlns="http://www.w3.org/2000/svg" xmlns:xlink="http://www.w3.org/1999/xlink" x="0px" y="0px"
	 viewBox="0 0 1000 1000" style="enable-background:new 0 0 1000 1000;" xml:space="preserve">
<style type="text/css">
	.st0{fill:none;stroke:#FFFFFF;stroke-width:10;stroke-miterlimit:10;}
	.st1{fill:#FFFFFF;}
	.st2{fill:none;stroke:#000000;stroke-width:18;stroke-miterlimit:10;}
	.st3{fill:#E02229;}
	.st4{fill-rule:evenodd;clip-rule:evenodd;fill:#FFFFFF;}
	.st5{fill:#EC1C24;}
</style>
<g>
	<path class="st0" d="M351.89,709.81l-21.66,33.69c-2.08,3.24-3.19,7.01-3.19,10.85v16.27c0,3.12-0.73,6.19-2.12,8.98l-20.09,40.19
		c-4.56,9.11-1.53,20.16,6.98,25.77c1.58,1.04,2.9,2.02,3.71,2.83c2.75,2.75,1.57,23.19,0.67,34.61c-0.39,5,1.09,9.93,4.17,13.88
		l14.34,18.43c4.73,6.08,12.52,8.92,20.05,7.3l17.21-3.69c12.5-2.68,24.28,6.85,24.28,19.63v3.24c0,17.36,20.55,26.53,33.47,14.95
		l70.37-63.09c4.79-4.29,7.23-10.62,6.57-17.01l-8.61-83.28c-1.06-10.23-9.68-18.01-19.97-18.01h-50.23
		c-11.09,0-20.07-8.99-20.07-20.07v-25.18c0-7.6-4.3-14.55-11.1-17.95l-18.91-9.45C368.58,698.13,357.43,701.19,351.89,709.81z"/>
	<path class="st0" d="M498.02,793.37c-1.06-10.23-9.68-18.01-19.97-18.01h-39.63c-26.83,3.84-30.67-13.73-30.67-30.67v-8.02
		c0-11.62-6.56-22.24-16.95-27.43l-13.05-6.53c-0.04-0.02-0.08-0.04-0.12-0.06c-5.6-2.75-8.03-9.38-4.94-14.8l12.79-22.44
		c1.89-3.31,5.4-5.35,9.21-5.35h47.71c2.45,0,4.82,0.85,6.71,2.4l30.29,24.78c4.85,3.97,5.22,11.26,0.78,15.7l-4.37,4.37
		c-6.68,6.68-1.95,18.09,7.5,18.09h73.36c6.55,0,11.53,5.88,10.46,12.34l-15.68,94.11c-0.85,5.11-5.27,8.86-10.46,8.86h-28.37
		c-5.42,0-9.96-4.08-10.54-9.47L498.02,793.37z"/>
	<path class="st0" d="M615.57,632.89l19.79-19.79c1.11-1.11,0.32-3-1.24-3h-21.94c-0.47,0-0.91,0.19-1.24,0.51l-18.19,18.19
		c-0.33,0.33-0.78,0.51-1.24,0.51H454.61c-0.47,0-0.91-0.19-1.24-0.51l-20.11-20.11c-0.33-0.33-0.78-0.51-1.24-0.51h-58.12
		c-0.47,0-0.91-0.19-1.24-0.51l-22.27-22.27c-0.69-0.69-1.8-0.69-2.48,0l-10.73,10.73c-0.33,0.33-0.51,0.78-0.51,1.24v31.94v26.09
		c0,0.52,0.23,1.01,0.63,1.34l34.39,28.96c0.79,0.67,1.99,0.53,2.57-0.33c3.9-5.79,10.45-25.31,20.47-25.31h47.08
		c2.85,0,5.62,0.99,7.82,2.79l28.3,23.15c5.66,4.63,6.08,13.13,0.91,18.3h0c-7.78,7.78-9.56,21.09,8.74,21.09h69.12h4.1
		c0.47,0,0.91-0.19,1.24-0.51l12.69-12.69c1.1-1.1,2.01-2.36,2.7-3.75l36.36-73.03C614.22,634.48,614.84,633.62,615.57,632.89z"/>
	<polyline class="st0" points="430.82,608.17 430.82,556.29 442.35,548.6 507.69,548.6 519.22,567.82 549.97,567.82 571.1,588.96 
		571.1,617.78 603.77,617.78 	"/>
	<path class="st0" d="M506.7,544.17l-6.62-29.77c-0.06-0.26-0.09-0.52-0.09-0.79v-59.59c0-0.97-0.38-1.89-1.07-2.57l-23.26-23.26
		c-1.42-1.42-3.73-1.42-5.15,0l-25.6,25.6c-1.42,1.42-1.42,3.73,0,5.15l7.89,7.89c0.68,0.68,1.07,1.61,1.07,2.57v40.24
		c0,0.35-0.05,0.71-0.15,1.05l-9.97,33.24c-0.7,2.34,1.05,4.69,3.49,4.69h55.91C505.48,548.6,507.21,546.44,506.7,544.17z"/>
	<path class="st0" d="M446.19,452.51l-37.56-37.56c-2.61-2.61-2.61-6.83,0-9.44l13.62-13.62c2.61-2.61,6.83-2.61,9.44,0l32.84,32.84
		c2.61,2.61,2.61,6.83,0,9.44L446.19,452.51"/>
	<path class="st0" d="M416.15,385.2l-13.77-11.48c-1.49-1.24-3.37-1.92-5.31-1.92h-72.35c-2.2,0-4.31,0.87-5.87,2.43l-9.15,9.15
		c-3.86,3.86-3.01,10.32,1.71,13.05l3.39,1.96c3.25,1.88,7.37,1.34,10.03-1.31l3.63-3.63c1.56-1.56,3.67-2.43,5.87-2.43h49.59
		c1.75,0,3.46,0.56,4.88,1.59l13.22,9.62c3.3,2.4,7.86,2.04,10.75-0.84l3.93-3.93C420.15,393.99,419.9,388.32,416.15,385.2z"/>
	<path class="st0" d="M659.97,919.5c2.16,0,4.24-0.86,5.77-2.39l6.65-6.65c0.38-0.38,0.72-0.8,1.02-1.24l13.95-20.93
		c0.53-0.79,0.94-1.66,1.18-2.58c2.2-8.63,21.39-56.71,22.78-60.18c0.06-0.15,0.1-0.27,0.15-0.42L722.51,792
		c0.28-0.83,0.42-1.7,0.42-2.58v-14.05L721,710.03v-6.23c0-2.16-0.86-4.24-2.39-5.77l-24.52-24.52c-3.18-3.18-3.18-8.35,0-11.53
		l7.22-7.22c1.53-1.53,2.39-3.6,2.39-5.77l0,0c0-4.5-3.65-8.15-8.15-8.15H616.5c-3.09,0-5.91,1.74-7.29,4.51l-28.32,56.63
		c-2.16,4.31-0.12,9.54,4.38,11.26l26.54,10.15c3.16,1.21,5.24,4.24,5.24,7.61v27.35c0,2.16-0.86,4.24-2.39,5.77l-20.39,20.39
		c-1.53,1.53-2.39,3.6-2.39,5.77v50.54c0,2.16-0.86,4.24-2.39,5.77l-14.8,14.8c-1.53,1.53-2.39,3.6-2.39,5.77v28.56
		c0,2.16,0.86,4.24,2.39,5.77l11.88,11.88c2.11,2.11,4.94,3.35,7.92,3.47L659.97,919.5z"/>
</g>
<path class="st1" d="M407.57,501.92c4.14,5.93,5.56,12.55,4.08,19.69c-1.08,5.25-3.74,9.67-7.74,13.25
	c-7.76,6.94-20.61,9.25-31.89,1.05l-3.53-3.29c-1.2-2.02-2.61-3.6-4.65-4.79c-14.04-8.16-28.02-16.43-42.02-24.66
	c-0.44-0.26-0.9-0.5-1.31-0.81c-0.99-0.77-1.25-2.03-0.66-3.1c0.55-1.01,1.83-1.39,3.03-0.86c0.53,0.23,1.01,0.56,1.51,0.85
	c12.29,7.22,24.57,14.44,36.86,21.66c0.53,0.31,1.08,0.61,1.83,1.02c-0.19-1.78-0.27-3.3-0.54-4.78c-0.09-0.49-0.6-0.95-1-1.34
	c-5.82-5.72-11.65-11.42-17.48-17.14c-0.5-0.49-1.04-0.97-1.47-1.52c-0.67-0.86-0.56-2.27,0.16-3.02c0.76-0.8,2-0.93,2.99-0.25
	c0.42,0.29,0.77,0.67,1.14,1.03c4.92,4.81,9.83,9.61,14.74,14.42c0.45,0.44,0.93,0.85,1.55,1.43c1.25-4.56,3.34-8.48,6.62-11.83
	c-2.06-2.59-4.06-5.1-6.05-7.61c-3.4-4.27-6.81-8.54-10.21-12.81c-0.24-0.3-0.51-0.58-0.71-0.91c-0.62-1.08-0.43-2.19,0.47-2.96
	c0.93-0.79,2.21-0.77,3.14,0.11c0.42,0.39,0.75,0.88,1.11,1.33c5.1,6.37,10.19,12.75,15.28,19.12c0.16,0.2,0.34,0.37,0.63,0.69
	c3.91-2.63,8.27-3.98,13.16-4.32c-0.38-0.67-0.63-1.17-0.93-1.63c-3.73-5.77-7.47-11.54-11.21-17.31c-0.35-0.54-0.72-1.07-0.97-1.66
	c-0.43-1.02-0.07-2.12,0.79-2.73c0.89-0.63,2.21-0.54,3,0.27c0.35,0.36,0.62,0.82,0.9,1.25c4.44,6.85,8.92,13.67,13.27,20.57
	c0.86,1.37,1.88,2.17,3.4,2.47c0.49,0.1,0.97,0.28,1.73,0.51c-0.19-0.74-0.31-1.33-0.5-1.89c-4.56-13.23-9.13-26.46-13.7-39.68
	c-0.19-0.55-0.43-1.09-0.52-1.65c-0.22-1.28,0.44-2.34,1.62-2.7c1.11-0.34,2.14,0.1,2.72,1.23c0.26,0.51,0.42,1.08,0.61,1.62
	c5.2,15.05,10.39,30.09,15.59,45.14c0.37,1.09,0.66,2.23,2.01,2.76 M385.41,535.74c9.56,1.26,20.15-5.64,21.46-17.26
	c1.2-10.67-6.77-20.44-17.46-21.54c-10.72-1.1-20.55,6.82-21.49,17.51C366.84,526.6,376.25,535.07,385.41,535.74z"/>
<g>
	<path class="st4" d="M266,207.64v-5.2c-0.06-1.25-0.29-2.48-0.69-3.67c-0.31-1-0.77-1.96-1.36-2.83c-0.63-0.96-1.32-1.88-2.06-2.77
		c-1.71-2.06-3.42-4-5.12-5.72c-1.71-1.73-3.5-3.55-5.29-5.29c-1.8-1.75-3.63-3.63-5.5-5.63c-1.88-2.01-3.85-4.27-5.89-6.7
		c-2.11-2.25-3.5-5.07-4-8.11c-0.44-3.35-0.64-6.74-0.59-10.12v-21.17c0-15.46,7.27-23.19,21.81-23.18c7.85,0,13.36,1.92,16.56,5.71
		c3.58,5.09,5.28,11.27,4.78,17.47v25.61h-12.11v-23.91c0.13-2.95-0.49-5.88-1.79-8.53c-1.55-2.34-4.3-3.6-7.09-3.25
		c-5.99,0-8.99,3.36-8.99,10.08v20.79c-0.09,2.16,0.11,4.33,0.6,6.44c0.54,1.57,1.38,3.02,2.48,4.27c3.12,4.1,6.54,7.97,10.23,11.57
		c3.86,3.56,7.48,7.37,10.85,11.4c2.33,2.64,4.02,5.78,4.94,9.18c0.92,4.32,1.32,8.74,1.2,13.15v20.11
		c0.4,6.1-1.37,12.15-4.99,17.08c-4.44,4.38-10.61,6.56-16.82,5.93c-6.15,0.57-12.25-1.6-16.65-5.93c-3.75-4.87-5.6-10.94-5.2-17.08
		v-29.88h12.47v27.97c-0.13,3.07,0.56,6.11,2,8.83c0.73,1.16,1.77,2.1,3,2.72c1.24,0.6,2.62,0.84,4,0.7
		c1.31,0.14,2.63-0.03,3.86-0.49c1.23-0.46,2.34-1.2,3.24-2.16c1.59-2.25,2.35-4.98,2.14-7.72L266,207.64z M327.31,134.39
		c0.29-3.31-0.62-6.61-2.56-9.31c-2.29-2.17-5.4-3.26-8.54-3h-8.88v47.66h8.99c3.13,0.3,6.24-0.75,8.54-2.9
		c2.07-2.67,3.04-6.03,2.73-9.4v-23.27L327.31,134.39z M294.18,248.97V108.82h21.97c6.66-0.55,13.26,1.67,18.23,6.14
		c4.38,5.42,6.49,12.32,5.89,19.26v22.97c0,8.88-1.93,15.28-5.81,19.26c-5,4.38-11.56,6.55-18.19,5.99h-9.09v66.6L294.18,248.97z
		 M378.32,213.53c-1.5-12.04-2.93-23.99-4.26-35.86c-1.34-11.87-2.76-23.88-4.27-36.03c-1.48,12.15-2.99,24.15-4.52,36.03
		c-1.54,11.87-3.1,23.83-4.69,35.86L378.32,213.53z M382.94,248.97l-3.08-23.48h-20.98l-3.08,23.48h-12.83l19.3-140.15h15.28
		l18.23,140.19L382.94,248.97z M437.32,197.53h11.79v28.97c0.5,6.43-1.21,12.84-4.86,18.16c-4.11,4.2-9.92,6.29-15.76,5.68
		c-14.91,0-22.36-7.9-22.36-23.69v-95.21c0-16.14,7.45-24.21,22.36-24.2c13.66,0,20.5,7.95,20.5,23.86v24.85h-11.66v-24.68
		c0.22-2.89-0.45-5.78-1.92-8.28c-1.72-1.97-4.29-2.96-6.88-2.65c-6.18,0-9.3,3.67-9.3,10.93v95.41c0,7.38,3.12,11.06,9.3,11.06
		c2.59,0.26,5.14-0.76,6.83-2.74c1.49-2.51,2.19-5.41,2-8.32L437.32,197.53z M464.29,248.97V108.82h37.1v13.1h-24.25v49.09h17.07
		v13.1h-17.07v52.13h25.1v12.8h-38.09L464.29,248.97z M574.73,213.53c-1.5-12.04-2.93-23.99-4.26-35.86
		c-1.34-11.87-2.76-23.88-4.26-36.03c-1.5,12.15-3.01,24.15-4.52,36.03c-1.51,11.87-3.08,23.83-4.7,35.86L574.73,213.53z
		 M579.34,248.97l-3.08-23.48h-20.98l-3.07,23.48h-12.87l19.3-140.15h15.28l18.28,140.19L579.34,248.97z M638.38,134.18
		c0.27-3.31-0.64-6.6-2.56-9.31c-1.14-1.08-2.51-1.9-4-2.41c-1.47-0.52-3.03-0.72-4.58-0.58h-8.88v47.94h9.05
		c1.55,0.15,3.1-0.04,4.57-0.54c1.48-0.5,2.84-1.3,4-2.36c2.05-2.68,3.03-6.03,2.74-9.4v-23.35L638.38,134.18z M605.1,248.97V108.82
		h21.97c6.66-0.56,13.26,1.66,18.23,6.14c4.39,5.41,6.52,12.31,5.93,19.26v22.97c0,8.88-2,15.28-5.85,19.26
		c-5,4.38-11.56,6.55-18.19,5.99h-9.09v66.6L605.1,248.97z M697.44,134.18c0.27-3.31-0.64-6.61-2.57-9.31
		c-1.13-1.07-2.47-1.89-3.95-2.41c-1.47-0.52-3.04-0.72-4.59-0.58h-8.88v47.94h9.06c1.55,0.15,3.1-0.04,4.57-0.54
		c1.48-0.5,2.84-1.3,4-2.36c2.06-2.68,3.04-6.03,2.74-9.4v-23.35L697.44,134.18z M664.31,248.97V108.82h21.97
		c6.66-0.55,13.26,1.67,18.23,6.14c4.44,5.39,6.61,12.3,6.06,19.26v22.97c0,8.88-2,15.28-5.85,19.26c-5,4.38-11.56,6.54-18.18,5.99
		h-9.1v66.6L664.31,248.97z M752.56,207.64v-5.2c-0.08-1.25-0.31-2.48-0.69-3.67c-0.33-1-0.79-1.95-1.36-2.83
		c-0.63-0.96-1.31-1.88-2.05-2.77c-1.72-2.06-3.42-4-5.12-5.72c-1.71-1.73-3.51-3.55-5.29-5.29c-1.79-1.75-3.72-3.72-5.55-5.63
		c-1.84-1.92-3.85-4.27-5.89-6.7c-2.09-2.26-3.48-5.08-4-8.11c-0.44-3.35-0.64-6.74-0.59-10.12v-21.17
		c0-15.46,7.27-23.19,21.81-23.18c7.85,0,13.36,1.92,16.56,5.71c3.58,5.09,5.28,11.27,4.78,17.47v25.61h-12.11v-23.91
		c0.13-2.95-0.49-5.88-1.8-8.53c-1.55-2.34-4.3-3.6-7.08-3.25c-5.99,0-9.01,3.36-9.05,10.08v20.79c-0.08,2.16,0.12,4.33,0.6,6.44
		c0.57,1.56,1.41,3.01,2.48,4.27c3.14,4.12,6.59,7.98,10.33,11.57c3.86,3.56,7.48,7.37,10.85,11.4c2.33,2.64,4.03,5.78,4.94,9.18
		c0.92,4.32,1.32,8.74,1.2,13.15v20.11c0.4,6.1-1.37,12.15-4.99,17.08c-9.74,7.91-23.69,7.91-33.43,0
		c-3.75-4.87-5.6-10.94-5.2-17.08v-29.88h12.42v27.97c-0.1,3.07,0.58,6.11,2,8.83c0.75,1.17,1.81,2.11,3.06,2.72
		c1.24,0.6,2.62,0.84,4,0.7c1.3,0.14,2.62-0.03,3.85-0.49c1.23-0.46,2.34-1.2,3.24-2.16c1.57-2.26,2.32-4.98,2.14-7.72
		L752.56,207.64z"/>
	<path class="st1" d="M253.9,269.63c2.42-0.04,4.83,0.36,7.11,1.18c2.17,0.82,4.17,2.02,5.93,3.53l-4.82,5.75
		c-1.13-0.92-2.38-1.67-3.73-2.23c-1.27-0.51-2.63-0.76-4-0.75c-2.77-0.05-5.37,1.33-6.87,3.66c-1.64,2.42-2.47,6.17-2.47,11.25
		s0.82,8.79,2.47,11.14c1.56,2.32,4.2,3.67,6.99,3.59c1.47,0.02,2.92-0.28,4.26-0.87c1.46-0.73,2.85-1.6,4.15-2.6l4.51,5.81
		c-1.69,1.68-3.69,3.04-5.87,4c-2.38,1.04-4.96,1.55-7.55,1.5c-3.61,0.09-7.18-0.81-10.32-2.6c-3-1.82-5.39-4.49-6.87-7.67
		c-1.7-3.87-2.52-8.07-2.41-12.3c-0.1-4.15,0.74-8.28,2.48-12.06c1.51-3.18,3.91-5.84,6.92-7.66
		C246.87,270.49,250.36,269.57,253.9,269.63z"/>
	<path class="st1" d="M321.37,313.57v-18.41H308.5v18.41h-10.16v-42.85h10.16v16.57h12.86v-16.61h10.14v42.89H321.37z"/>
	<path class="st1" d="M388.52,313.57l-2.23-9.22h-12.49l-2.17,9.22h-10.51l12.91-42.85h12.31l12.92,42.85H388.52z M375.53,297h8.99
		l-4.51-18.93L375.53,297z"/>
	<path class="st1" d="M438.97,270.68v34.81h16.69l-1.05,7.99h-25.79v-42.85L438.97,270.68z"/>
	<path class="st1" d="M497.11,270.68v34.81h16.69l-1.05,7.99h-25.83v-42.85L497.11,270.68z"/>
	<path class="st1" d="M571.31,270.68l-1.06,7.23h-15.08v10.26h13.17v7.11h-13.17v10.99h16.14v7.3h-26.26v-42.85L571.31,270.68z"/>
	<path class="st1" d="M637,313.57h-12.92l-12.37-33.21c0.42,3.26,0.73,6.14,0.93,8.66s0.32,5.46,0.37,8.84v15.71h-8.99v-42.85h12.61
		l12.67,33.26c-0.87-5.28-1.33-10.63-1.36-15.98v-17.32h9.09L637,313.57z"/>
	<path class="st1" d="M689.93,269.63c5.25-0.1,10.35,1.78,14.28,5.26l-5.13,5.37c-1.3-1.02-2.73-1.85-4.26-2.48
		c-1.42-0.56-2.93-0.83-4.45-0.8c-3.01-0.09-5.86,1.32-7.6,3.78c-1.91,2.47-2.87,6.24-2.87,11.31c0,5.48,0.72,9.38,2.17,11.69
		c1.45,2.28,4.03,3.58,6.73,3.41c2.03,0.03,4.03-0.46,5.81-1.42v-9.71h-5.56l-1-7.17h16.42v21.2c-2.28,1.46-4.76,2.59-7.36,3.34
		c-2.61,0.78-5.32,1.17-8.04,1.18c-6.51,0-11.42-1.9-14.71-5.69c-3.3-3.8-4.94-9.4-4.94-16.82c-0.12-4.19,0.8-8.35,2.66-12.12
		c1.65-3.21,4.21-5.88,7.35-7.66C682.63,270.5,686.25,269.58,689.93,269.63z"/>
	<path class="st1" d="M763.92,270.68l-1,7.23h-15.1v10.26h13.17v7.11h-13.17v10.99h16.14v7.3h-26.32v-42.85L763.92,270.68z"/>
	<path class="st5" d="M451.34,86.38h-13.35L425.2,52.05c0.42,3.36,0.75,6.33,1,8.91c0.25,2.58,0.36,5.64,0.35,9.18v16.24h-9.34
		V42.07h13.03l13.1,34.4c-0.9-5.45-1.37-10.97-1.4-16.5v-17.9h9.39L451.34,86.38z"/>
	<path class="st5" d="M489.32,86.38l-2.3-9.53h-12.88l-2.24,9.53H461l13.35-44.31h12.76l13.35,44.31H489.32z M475.9,69.24h9.33
		l-4.66-19.56L475.9,69.24z"/>
	<path class="st5" d="M533.01,42.39c2.49,0.96,4.77,2.42,6.68,4.28l-4.85,5.69c-2.71-2.36-6.17-3.67-9.76-3.71
		c-1.53-0.09-3.05,0.31-4.34,1.12c-1.06,0.72-1.66,1.95-1.6,3.23c-0.04,0.85,0.21,1.7,0.7,2.4c0.68,0.77,1.54,1.38,2.5,1.76
		c1.75,0.77,3.54,1.43,5.36,2c4.51,1.44,7.84,3.23,9.99,5.34c2.14,2.12,3.21,5.11,3.2,8.99c0.05,2.6-0.69,5.15-2.11,7.32
		c-1.51,2.19-3.62,3.9-6.07,4.91c-2.97,1.24-6.18,1.84-9.4,1.76c-3.29,0.06-6.56-0.52-9.62-1.72c-2.66-1.07-5.1-2.63-7.19-4.6
		l5.3-5.82c1.58,1.36,3.36,2.45,5.29,3.24c1.88,0.74,3.89,1.11,5.91,1.09c1.83,0.1,3.63-0.41,5.14-1.44c1.25-0.94,1.95-2.43,1.89-4
		c0.03-0.98-0.21-1.94-0.71-2.79c-0.62-0.87-1.45-1.56-2.43-2c-1.61-0.78-3.28-1.42-4.99-1.92c-4.9-1.5-8.39-3.33-10.46-5.5
		c-2.09-2.23-3.2-5.19-3.1-8.24c-0.05-2.41,0.67-4.77,2.05-6.75c1.44-2,3.41-3.56,5.69-4.48c2.62-1.08,5.42-1.61,8.25-1.57
		C527.29,40.93,530.23,41.4,533.01,42.39z"/>
	<path class="st5" d="M576.07,86.38l-2.31-9.53h-12.9l-2.24,9.53h-10.87l13.35-44.31h12.72l13.35,44.31H576.07z M562.64,69.24h9.38
		l-4.71-19.56L562.64,69.24z"/>
</g>
</svg>
